<?xml version="1.0" encoding="utf-8"?>
<!-- Generator: Adobe Illustrator 17.0.2, SVG Export Plug-In . SVG Version: 6.00 Build 0)  -->
<!DOCTYPE svg PUBLIC "-//W3C//DTD SVG 1.1//EN" "http://www.w3.org/Graphics/SVG/1.1/DTD/svg11.dtd">
<svg version="1.1" id="Layer_1" xmlns="http://www.w3.org/2000/svg" xmlns:xlink="http://www.w3.org/1999/xlink" x="0px" y="0px"
	 width="34px" height="22.356px" viewBox="0 0 34 22.356" enable-background="new 0 0 34 22.356" xml:space="preserve">
<g>
	<defs>
		<polygon id="SVGID_1_" points="7.16,14.53 0,22 26.173,22 17.303,7.043 8.999,17.001 		"/>
	</defs>
	<use xlink:href="#SVGID_1_"  overflow="visible" fill-rule="evenodd" clip-rule="evenodd" fill="#DEDEDC"/>
	<clipPath id="SVGID_2_">
		<use xlink:href="#SVGID_1_"  overflow="visible"/>
	</clipPath>
	<g clip-path="url(#SVGID_2_)">
		<defs>
			<rect id="SVGID_3_" width="34" height="23"/>
		</defs>
		<use xlink:href="#SVGID_3_"  overflow="visible" fill="#DEDEDC"/>
		<clipPath id="SVGID_4_">
			<use xlink:href="#SVGID_3_"  overflow="visible"/>
		</clipPath>
	</g>
</g>
<g>
	<defs>
		<path id="SVGID_5_" d="M3.804,7.211c-0.953,0-1.722,0.762-1.722,1.697c0,0.936,0.769,1.698,1.722,1.698s1.722-0.761,1.722-1.698
			C5.525,7.973,4.756,7.211,3.804,7.211C3.804,7.211,4.756,7.211,3.804,7.211z"/>
	</defs>
	<use xlink:href="#SVGID_5_"  overflow="visible" fill-rule="evenodd" clip-rule="evenodd" fill="#DEDEDC"/>
	<clipPath id="SVGID_6_">
		<use xlink:href="#SVGID_5_"  overflow="visible"/>
	</clipPath>
</g>
<polygon fill-rule="evenodd" clip-rule="evenodd" fill="#DEDEDC" points="34,6 34,4 30,4 30,0 28,0 28,4 24,4 24,6 28,6 28,10 
	30,10 30,6 "/>
</svg>
